<svg xmlns="http://www.w3.org/2000/svg" xmlns:xlink="http://www.w3.org/1999/xlink" xmlns:lucid="lucid" width="1360" height="700"><g transform="translate(-380 -240)" lucid:page-tab-id="0_0"><path d="M0 0h1870.87v1322.83H0z" fill="#fff"/><path d="M400 266a6 6 0 0 1 6-6h1308a6 6 0 0 1 6 6v648a6 6 0 0 1-6 6H406a6 6 0 0 1-6-6z" stroke="#232f3e" fill="#fff" fill-opacity="0"/><path d="M400 260h56v56h-56v-56z" stroke="#fff" stroke-opacity="0" fill="#232f3e"/><path d="M418.22 285.87c-.04.48.05.87.17 1.34.1.4.28.7.48 1.07.04.1.08.22.08.34 0 .2-.12.36-.28.46l-.95.62c-.12.08-.25.13-.37.13-.16 0-.33-.06-.45-.2-.2-.2-.36-.43-.52-.7-.17-.25-.3-.53-.46-.86-1.1 1.37-2.62 2.1-4.4 2.06-1.14.06-2.12-.3-2.95-1.08-.78-.8-1.15-1.76-1.1-2.85-.05-1.23.4-2.28 1.35-3.08 1.07-.85 2.3-1.23 3.66-1.16.57 0 1.02.02 1.6.1.57.1 1.1.2 1.72.33v-1.1c.08-.88-.16-1.67-.7-2.37-.74-.56-1.56-.8-2.46-.7-.53 0-1.03.07-1.6.2-.58.13-1.03.3-1.6.5l-.5.2h-.24c-.2 0-.33-.16-.33-.45v-.75c0-.18.04-.34.12-.5.12-.16.24-.26.4-.33.66-.3 1.2-.5 1.9-.67.77-.2 1.47-.3 2.3-.28 1.47-.13 2.78.26 3.9 1.2.94 1.05 1.35 2.28 1.22 3.67zm-6.07 2.28c.57 0 1.06-.1 1.6-.28.57-.2 1.02-.5 1.44-.96.23-.27.4-.56.48-.93.12-.45.16-.84.16-1.3V284c-.53-.1-.94-.17-1.43-.2H413c-.8-.08-1.55.12-2.2.58-.54.45-.8 1.04-.75 1.73-.04.6.13 1.16.54 1.6.44.38.97.52 1.55.45zm12 1.6c-.22 0-.42-.03-.6-.15-.15-.17-.23-.36-.32-.6l-3.5-11.5-.1-.62c0-.24.1-.37.36-.37h1.47c.2 0 .37.04.57.15.17.18.25.37.3.6l2.5 9.96 2.38-9.93c0-.24.08-.44.28-.6.17-.12.37-.16.58-.15h1.2c.24 0 .4.03.6.15.17.18.25.36.3.6l2.33 9.94 2.56-10c.04-.2.16-.4.33-.58.15-.1.36-.17.56-.14h1.4c.16 0 .33.1.37.3v.31s0 .2-.12.35l-3.6 11.53c-.05.22-.13.42-.3.6-.2.1-.36.14-.57.13h-1.27c-.25.04-.45-.02-.62-.15-.16-.16-.25-.36-.3-.6l-2.3-9.6-2.3 9.6c-.03.24-.1.44-.27.6-.2.13-.4.2-.62.16zm19.2.38c-.82 0-1.5-.07-2.3-.25-.65-.13-1.14-.3-1.72-.6-.2-.1-.37-.23-.45-.42-.08-.14-.12-.28-.12-.43v-.75c0-.3.12-.46.32-.46h.3l.36.16c.58.23 1.03.4 1.6.5.62.14 1.15.2 1.8.2.8.05 1.5-.1 2.2-.5.48-.3.77-.8.72-1.4.05-.4-.12-.76-.36-1.04-.46-.4-.95-.65-1.52-.8l-2.18-.68c-.94-.25-1.73-.73-2.38-1.5-.5-.65-.74-1.35-.74-2.18 0-.6.12-1.08.4-1.6.3-.5.63-.9 1.08-1.22.5-.38.98-.6 1.6-.78.66-.18 1.2-.26 1.9-.25.32-.03.6-.03.97 0l1 .16.8.22.67.26c.16.1.28.22.45.38.08.15.12.3.12.5v.7c0 .32-.12.47-.37.47-.2-.03-.37-.08-.57-.18-.95-.42-1.8-.6-2.88-.58-.7-.04-1.3.1-1.97.4-.5.3-.74.8-.7 1.36 0 .4.13.76.46 1.05.5.4.98.65 1.6.82l2.1.67c.94.24 1.67.7 2.3 1.44.48.64.7 1.3.7 2.1 0 .63-.13 1.17-.38 1.73-.3.55-.62.95-1.1 1.32-.5.4-1 .66-1.6.84-.75.23-1.4.33-2.15.34zM446.1 297.48c-5.6 3.82-11.36 5.58-18.15 5.56-8.54.05-15.82-2.74-22.16-8.45-.5-.42 0-1 .48-.68 7.07 4.05 14.03 5.9 22.2 5.9 6.1-.04 11.3-1.1 16.93-3.47.83-.35 1.52.55.7 1.13z" stroke="#fff" stroke-opacity="0" fill="#fff"/><path d="M448.16 295.2c-.64-.82-4.16-.38-5.75-.2-.46 0-.53-.36-.1-.66 2.8-1.98 7.42-1.4 8-.74.6.67-.14 5.28-2.78 7.5-.4.32-.78.13-.6-.3.54-1.52 1.86-4.83 1.24-5.6z" stroke="#fff" stroke-opacity="0" fill="#fff"/><use xlink:href="#a" transform="matrix(1,0,0,1,471,280) translate(0 14.4)"/><use xlink:href="#b" transform="matrix(1,0,0,1,471,280) translate(45.3 14.4)"/><path d="M420 336a6 6 0 0 1 6-6h1268a6 6 0 0 1 6 6v558a6 6 0 0 1-6 6H426a6 6 0 0 1-6-6z" fill="#fff" fill-opacity="0"/><path d="M420.73 333.16l.42-.7.6-.7.62-.52m1.47-.82l.3-.13.92-.23h1.5m2 0h3m2 0h3m2 0h3m2 0h2.98m2 0h3m2 0h3m2 0h3m2 0h3m2 0h2.98m2 0h3m2 0h3m2 0h3m2 0h3m1.98 0h3m2 0h3m2 0h3m2 0h3m2 0h2.98m2 0h3m2 0h3m2 0h3m2 0h3m2 0h2.98m2 0h3m2 0h3m2 0h3m2 0h3m2 0h2.98m2 0h3m2 0h3m2 0h3m2 0h3m1.98 0h3m2 0h3m2 0h3m2 0h3m2 0h3m1.98 0h3m2 0h3m2 0h3m2 0h3m2 0h2.98m2 0h3m2 0h3m2 0h3m2 0h3m2 0h2.98m2 0h3m2 0h3m2 0h3m2 0h3m2 0h2.98m2 0h3m2 0h3m2 0h3m2 0h3m1.98 0h3m2 0h3m2 0h3m2 0h3m2 0h3m1.98 0h3m2 0h3m2 0h3m2 0l3-.02m2 0h2.98m2 0h3m2 0h3m2 0h3m2 0h3m2 0h2.98m2 0h3m2 0h3m2 0h3m2 0h3m2 0h2.98m2 0h3m2 0h3m2 0h3m2 0h3m1.98 0h3m2 0h3m2 0h3m2 0h3m2 0h2.98m2 0h3m2 0h3m2 0h3m2 0h3m2 0h2.98m2 0h3m2 0h3m2 0h3m2 0h3m2 0h2.98m2 0h3m2 0h3m2 0h3m2 0h3m1.98 0h3m2 0h3m2 0h3m2 0h3m2 0h3m1.98 0h3m2 0h3m2 0h3m2 0h3m2 0h2.98m2 0h3m2 0h3m2 0h3m2 0h3m2 0h2.98m2 0h3m2 0h3m2 0h3m2 0h3m2 0h2.98m2 0h3m2 0h3m2 0h3m2 0h3m1.98 0h3m2 0h3m2 0h3m2 0h3m2 0h3m1.98 0h3m2 0h3m2 0h3m2 0h3m2 0h2.98m2 0l3-.02m2 0h3m2 0h3m2 0h3m2 0h2.98m2 0h3m2 0h3m2 0h3m2 0h3m2 0h2.98m2 0h3m2 0h3m2 0h3m2 0h3m1.98 0h3m2 0h3m2 0h3m2 0h3m2 0h2.98m2 0h3m2 0h3m2 0h3m2 0h3m2 0h2.98m2 0h3m2 0h3m2 0h3m2 0h3m2 0h2.98m2 0h3m2 0h3m2 0h3m2 0h3m1.98 0h3m2 0h3m2 0h3m2 0h3m2 0h3m1.98 0h3m2 0h3m2 0h3m2 0h3m2 0h2.98m2 0h3m2 0h3m2 0h3m2 0h3m2 0h2.98m2 0h3m2 0h3m2 0h3m2 0h3m2 0h2.98m2 0h3m2 0h3m2 0h3m2 0h3m1.98 0h3m2 0h3m2 0h3m2 0h3m2 0h3m1.98 0h3m2 0h3m2 0h3m2 0h3m2 0h2.98m2 0h3m2 0h3m2-.02h3m2 0h3m2 0h2.98m2 0h3m2 0h3m2 0h3m2 0h3m2 0h2.98m2 0h3m2 0h3m2 0h3m2 0h3m1.98 0h3m2 0h3m2 0h3m2 0h3m2 0h3m1.98 0h3m2 0h3m2 0h3m2 0h3m2 0h2.98m2 0h3m2 0h3m2 0h3m2 0h3m2 0h2.98m2 0h3m2 0h3m2 0h3m2 0h3m1.98 0h3m2 0h3m2 0h3m2 0h3m2 0h3m1.98 0h3m2 0h3m2 0h3m2 0h3m2 0h2.98m2 0h3m2 0h3m2 0h3m2 0h3m2 0h2.98m2 0h3m2 0h3m2 0h3m2 0h3m2 0h2.98m2 0h1.5l.94.07.32.08m1.58.58l.7.42.7.6.52.62m.82 1.47l.13.3.23.92v1.5m0 2v3m0 2v2.98m0 2v3m0 2v2.98m0 2v3m0 2v2.98m0 2v3m0 2v2.98m0 2v3m0 2v2.98m0 2v3m0 2v2.98m0 2v3m0 2v3m0 1.98v3m0 2v3m0 1.98v3m0 2v3m0 1.98v3m0 2v3m0 2v2.98m0 2v3m0 2v2.98m0 2v3m0 2v2.98m0 2v3m0 2v2.98m0 2v3m0 2l.02 2.98m0 2v3m0 2v2.98m0 2v3m0 2v3m0 1.98v3m0 2v3m0 1.98v3m0 2v3m0 1.98v3m0 2v3m0 2v2.98m0 2v3m0 2v2.98m0 2v3m0 2v2.98m0 2v3m0 2v2.98m0 2v3m0 2v2.98m0 2v3m0 2v2.98m0 2v3m0 2v3m0 1.98v3m0 2v3m0 1.98v3m0 2v3m0 1.98v3m0 2v3m0 2l.02 2.98m0 2v3m0 2v2.98m0 2v3m0 2v2.98m0 2v3m0 2v2.98m0 2v3m0 2v2.98m0 2v3m0 2v2.98m0 2v3m0 2v3m0 1.98v3m0 2v3m0 1.98v3m0 2v3m0 1.98v3m0 2v3m0 2v2.98m0 2v3m0 2v2.98m0 2v3m0 2v2.98m0 2v3m0 2v2.98m0 2v3m0 2v2.98m0 2v3m0 2v2.98m0 2l.02 3m0 2v3m0 1.98v3m0 2v3m0 1.98v3m0 2v3m0 1.98v3m0 2v3m0 1.98v3m0 2v3m0 2v2.98m0 2v3m0 2v2.98m0 2v3m0 2v2.98m0 2v3m0 2v2.98m0 2v3m0 2v2.98m0 2v3m0 2v3m0 1.98v3m0 2v3m0 1.98v1.5l-.07.94-.08.32m-.58 1.58l-.42.7-.6.7-.62.52m-1.47.82l-.3.13-.92.23h-1.5m-2 0h-3m-2 0h-3m-2 0h-3m-2 0h-2.98m-2 0h-3m-2 0h-3m-2 0h-3m-2 0h-3m-2 0h-2.98m-2 0h-3m-2 0h-3m-2 0h-3m-2 0h-3m-1.98 0h-3m-2 0h-3m-2 0h-3m-2 0h-3m-2 0h-2.98m-2 0h-3m-2 0h-3m-2 0h-3m-2 0h-3m-2 0h-2.98m-2 0h-3m-2 0h-3m-2 0h-3m-2 0h-3m-2 0h-2.98m-2 0h-3m-2 0h-3m-2 0h-3m-2 0h-3m-1.98 0h-3m-2 0h-3m-2 0h-3m-2 0h-3m-2 0h-3m-1.98 0h-3m-2 0h-3m-2 0h-3m-2 0h-3m-2 0h-2.98m-2 0h-3m-2 0h-3m-2 0h-3m-2 0h-3m-2 0h-2.98m-2 0h-3m-2 0h-3m-2 0h-3m-2 0h-3m-2 0h-2.98m-2 0h-3m-2 0h-3m-2 0h-3m-2 0h-3m-1.98 0h-3m-2 0h-3m-2 0h-3m-2 0h-3m-2 0h-3m-1.98 0h-3m-2 0h-3m-2 0h-3m-2 0l-3 .02m-2 0h-2.98m-2 0h-3m-2 0h-3m-2 0h-3m-2 0h-3m-2 0h-2.98m-2 0h-3m-2 0h-3m-2 0h-3m-2 0h-3m-2 0h-2.98m-2 0h-3m-2 0h-3m-2 0h-3m-2 0h-3m-1.98 0h-3m-2 0h-3m-2 0h-3m-2 0h-3m-2 0h-2.98m-2 0h-3m-2 0h-3m-2 0h-3m-2 0h-3m-2 0h-2.98m-2 0h-3m-2 0h-3m-2 0h-3m-2 0h-3m-2 0h-2.98m-2 0h-3m-2 0h-3m-2 0h-3m-2 0h-3m-1.98 0h-3m-2 0h-3m-2 0h-3m-2 0h-3m-2 0h-3m-1.98 0h-3m-2 0h-3m-2 0h-3m-2 0h-3m-2 0h-2.98m-2 0h-3m-2 0h-3m-2 0h-3m-2 0h-3m-2 0h-2.98m-2 0h-3m-2 0h-3m-2 0h-3m-2 0h-3m-2 0h-2.98m-2 0h-3m-2 0h-3m-2 0h-3m-2 0h-3m-1.98 0h-3m-2 0h-3m-2 0h-3m-2 0h-3m-2 0h-3m-1.98 0h-3m-2 0h-3m-2 0h-3m-2 0h-3m-2 0H1029m-2 0l-3 .02m-2 0h-3m-2 0h-3m-2 0h-3m-2 0h-2.98m-2 0h-3m-2 0h-3m-2 0h-3m-2 0h-3m-2 0h-2.98m-2 0h-3m-2 0h-3m-2 0h-3m-2 0h-3m-1.98 0h-3m-2 0h-3m-2 0h-3m-2 0h-3m-2 0h-2.98m-2 0h-3m-2 0h-3m-2 0h-3m-2 0h-3m-2 0h-2.98m-2 0h-3m-2 0h-3m-2 0h-3m-2 0h-3m-2 0h-2.98m-2 0h-3m-2 0h-3m-2 0h-3m-2 0h-3m-1.98 0h-3m-2 0h-3m-2 0h-3m-2 0h-3m-2 0h-3m-1.98 0h-3m-2 0h-3m-2 0h-3m-2 0h-3m-2 0h-2.98m-2 0h-3m-2 0h-3m-2 0h-3m-2 0h-3m-2 0h-2.98m-2 0h-3m-2 0h-3m-2 0h-3m-2 0h-3m-2 0h-2.98m-2 0h-3m-2 0h-3m-2 0h-3m-2 0h-3m-1.98 0h-3m-2 0h-3m-2 0h-3m-2 0h-3m-2 0h-3m-1.98 0h-3m-2 0h-3m-2 0h-3m-2 0h-3m-2 0h-2.98m-2 0h-3m-2 0h-3m-2 .02h-3m-2 0h-3m-2 0h-2.98m-2 0h-3m-2 0h-3m-2 0h-3m-2 0h-3m-2 0h-2.98m-2 0h-3m-2 0h-3m-2 0h-3m-2 0h-3m-1.98 0h-3m-2 0h-3m-2 0h-3m-2 0h-3m-2 0h-3m-1.98 0h-3m-2 0h-3m-2 0h-3m-2 0h-3m-2 0h-2.98m-2 0h-3m-2 0h-3m-2 0h-3m-2 0h-3m-2 0h-2.98m-2 0h-3m-2 0h-3m-2 0h-3m-2 0h-3m-1.98 0h-3m-2 0h-3m-2 0h-3m-2 0h-3m-2 0h-3m-1.98 0h-3m-2 0h-3m-2 0h-3m-2 0h-3m-2 0h-2.98m-2 0h-3m-2 0h-3m-2 0h-3m-2 0h-3m-2 0h-2.98m-2 0h-3m-2 0h-3m-2 0h-3m-2 0h-3m-2 0h-2.98m-2 0H426l-.94-.07-.32-.08m-1.58-.58l-.7-.42-.7-.6-.52-.62m-.82-1.47l-.13-.3-.23-.92v-1.5m0-2v-3m0-2v-2.98m0-2v-3m0-2v-2.98m0-2v-3m0-2v-2.98m0-2v-3m0-2v-2.98m0-2v-3m0-2v-2.98m0-2v-3m0-2v-2.98m0-2v-3m0-2v-3m0-1.98v-3m0-2v-3m0-1.98v-3m0-2v-3m0-1.98v-3m0-2v-3m0-2v-2.98m0-2v-3m0-2v-2.98m0-2v-3m0-2v-2.98m0-2v-3m0-2v-2.98m0-2v-3m0-2l-.02-2.98m0-2v-3m0-2v-2.98m0-2v-3m0-2v-3m0-1.98v-3m0-2v-3m0-1.98v-3m0-2v-3m0-1.98v-3m0-2v-3m0-2v-2.98m0-2v-3m0-2v-2.98m0-2v-3m0-2v-2.98m0-2v-3m0-2v-2.98m0-2v-3m0-2v-2.98m0-2v-3m0-2v-2.98m0-2v-3m0-2v-3m0-1.98v-3m0-2v-3m0-1.98v-3m0-2v-3m0-1.98v-3m0-2v-3m0-2l-.02-2.98m0-2v-3m0-2v-2.98m0-2v-3m0-2v-2.98m0-2v-3m0-2v-2.98m0-2v-3m0-2v-2.98m0-2v-3m0-2v-2.98m0-2v-3m0-2v-3m0-1.98v-3m0-2v-3m0-1.98v-3m0-2v-3m0-1.98v-3m0-2v-3m0-2v-2.98m0-2v-3m0-2v-2.98m0-2v-3m0-2v-2.98m0-2v-3m0-2v-2.98m0-2v-3m0-2v-2.98m0-2v-3m0-2v-2.98m0-2l-.02-3m0-2v-3m0-1.98v-3m0-2v-3m0-1.98v-3m0-2v-3m0-1.98v-3m0-2v-3m0-1.98v-3m0-2v-3m0-2v-2.98m0-2v-3m0-2v-2.98m0-2v-3m0-2v-2.98m0-2v-3m0-2v-2.98m0-2v-3m0-2v-2.98m0-2v-3m0-2v-3m0-1.98v-3m0-2v-3m0-1.98V336l.07-.94.08-.32" stroke="#147eba" fill="none"/><path d="M420 330h56v56h-56v-56z" stroke="#fff" stroke-opacity="0" fill="#147eba"/><path d="M463.84 359.36l-5.96-7.36 5.96-7.4h-26.17v-2.08c.98-.32 1.62-1.16 1.62-2.2-.1-1.15-1.03-2.02-2.17-2.14-1.3-.08-2.44.87-2.53 2.15 0 1.03.63 1.87 1.58 2.2v33.88h-4.02v1.6h9.44v-1.6h-3.93v-17.04zm-26.96-19.75c.4-.03.76.33.76.73 0 .44-.32.75-.73.75-.4.04-.75-.3-.75-.7v-.05c0-.4.32-.72.73-.72zm23.6 6.62l-4.66 5.78 4.66 5.73h-22.8v-11.5z" stroke="#fff" stroke-opacity="0" fill="#fff"/><use xlink:href="#c" transform="matrix(1,0,0,1,491,350) translate(0 14.4)"/><path d="M440 406a6 6 0 0 1 6-6h548a6 6 0 0 1 6 6v468a6 6 0 0 1-6 6H446a6 6 0 0 1-6-6z" stroke="#248814" fill="#fff" fill-opacity="0"/><path d="M440 400h56v56h-56v-56z" stroke="#fff" stroke-opacity="0" fill="#248814"/><path d="M471.76 428.3h-1.18v-1.1c-.12-1.73-1.48-3.07-3.2-3.2-1.9-.13-3.54 1.3-3.67 3.2v1.07h-1.17c-.44 0-.8.36-.8.8v6.13c0 .44.36.8.8.8h9.23c.44 0 .8-.36.8-.8v-6.1c0-.44-.36-.8-.8-.8zm-6.4-1.06c.1-1.02 1-1.77 2-1.67.9.08 1.58.77 1.67 1.67v1.06h-3.72zm5.65 7.08h-7.67v-4.42h7.63z" stroke="#fff" stroke-opacity="0" fill="#fff"/><path d="M482.27 425.74c-.08-2.44-1.58-4.47-3.87-5.3-1.58-.46-3.16-.13-4.4.9-.68-1.44-1.47-2.6-2.6-3.75-3.24-3.36-7.94-4.3-12.18-2.4-4.04 1.9-6.4 5.63-6.54 10.05v.7c-3.4.98-5.66 4.08-5.5 7.65v.63c.4 4.28 3.92 7.52 8.2 7.47h26s7.42-.63 7.42-8.1c.04-3.9-2.66-7.2-6.53-7.86zm-.96 14.4h-25.9c-3.47.05-6.3-2.53-6.6-5.97v-.52c-.15-3.05 1.93-5.7 4.92-6.3.38-.12.63-.48.6-.9-.06-.4-.06-.73 0-1.14.07-3.78 2.1-6.94 5.52-8.6 1.25-.56 2.4-.8 3.83-.84 2.62.08 4.87 1.04 6.7 2.94 1.25 1.3 2.04 2.6 2.62 4.3.03.15.1.28.24.37.37.27.87.2 1.12-.17.83-1.18 2.25-1.67 3.62-1.3 1.8.72 2.87 2.4 2.83 4.32-.07.4.22.82.64.9 3.57.36 6.2 3.55 5.82 7.12-.3 3.13-2.7 5.52-5.82 5.85z" stroke="#fff" stroke-opacity="0" fill="#fff"/><use xlink:href="#d" transform="matrix(1,0,0,1,511,420) translate(0 14.4)"/><use xlink:href="#e" transform="matrix(1,0,0,1,511,420) translate(55.5 14.4)"/><use xlink:href="#f" transform="matrix(1,0,0,1,511,420) translate(116.4 14.4)"/><path d="M1120 406a6 6 0 0 1 6-6h548a6 6 0 0 1 6 6v468a6 6 0 0 1-6 6h-548a6 6 0 0 1-6-6z" stroke="#248814" fill="#fff" fill-opacity="0"/><path d="M1120 400h56v56h-56v-56z" stroke="#fff" stroke-opacity="0" fill="#248814"/><path d="M1151.76 428.3h-1.18v-1.1c-.12-1.73-1.48-3.07-3.2-3.2-1.9-.13-3.54 1.3-3.67 3.2v1.07h-1.17c-.44 0-.8.36-.8.8v6.13c0 .44.36.8.8.8h9.23c.44 0 .8-.36.8-.8v-6.1c0-.44-.36-.8-.8-.8zm-6.4-1.06c.1-1.02 1-1.77 2-1.67.9.08 1.58.77 1.67 1.67v1.06h-3.72zm5.65 7.08h-7.67v-4.42h7.63z" stroke="#fff" stroke-opacity="0" fill="#fff"/><path d="M1162.27 425.74c-.08-2.44-1.58-4.47-3.87-5.3-1.58-.46-3.16-.13-4.4.9-.68-1.44-1.47-2.6-2.6-3.75-3.24-3.36-7.94-4.3-12.18-2.4-4.04 1.9-6.4 5.63-6.54 10.05v.7c-3.4.98-5.66 4.08-5.5 7.65v.63c.4 4.28 3.92 7.52 8.2 7.47h26s7.42-.63 7.42-8.1c.04-3.9-2.66-7.2-6.53-7.86zm-.96 14.4h-25.9c-3.47.05-6.3-2.53-6.6-5.97v-.52c-.15-3.05 1.93-5.7 4.92-6.3.38-.12.63-.48.6-.9-.06-.4-.06-.73 0-1.14.07-3.78 2.1-6.94 5.52-8.6 1.25-.56 2.4-.8 3.83-.84 2.62.08 4.87 1.04 6.7 2.94 1.25 1.3 2.04 2.6 2.62 4.3.03.15.1.28.24.37.37.27.87.2 1.12-.17.83-1.18 2.25-1.67 3.62-1.3 1.8.72 2.87 2.4 2.83 4.32-.07.4.22.82.64.9 3.57.36 6.2 3.55 5.82 7.12-.3 3.13-2.7 5.52-5.82 5.85z" stroke="#fff" stroke-opacity="0" fill="#fff"/><use xlink:href="#d" transform="matrix(1,0,0,1,1191,420) translate(0 14.4)"/><use xlink:href="#e" transform="matrix(1,0,0,1,1191,420) translate(55.5 14.4)"/><use xlink:href="#f" transform="matrix(1,0,0,1,1191,420) translate(116.4 14.4)"/><path d="M460 486a6 6 0 0 1 6-6h228a6 6 0 0 1 6 6v368a6 6 0 0 1-6 6H466a6 6 0 0 1-6-6z" fill="#fff" fill-opacity="0"/><path d="M463.08 480.78l.2-.13.87-.36.9-.23h2m3.93 0h3.95m3.95 0h3.94m3.95 0h3.95m3.95 0h3.94m3.96 0h3.95m3.95 0h3.95m3.95 0h3.95m3.94-.02h3.95m3.94 0h3.94m3.95 0h3.95m3.95 0h3.94m3.95 0h3.95m3.95 0h3.94m3.95 0h3.96m3.94 0h3.95m3.95-.02h3.95m3.94 0h3.94m3.95 0h3.93m3.95 0h3.95m3.95 0h3.94m3.95 0h3.95m3.95 0h3.94m3.96 0l3.95-.02m3.95 0h3.95m3.95 0h3.95m3.94 0h3.95m3.94 0h3.94m3.95 0h3.95m3.95 0H694l.94.07.9.22.23.08m3.15 2.7l.13.2.36.87.23.9v2.02m0 4v4.02m0 4v4m0 4.02v4m0 4.02v4m0 4.02v4m0 4.02v4m0 4.02v4m0 4.02v4m0 4.02v4m0 4.02v4m0 4.02v4m0 4.02l.02 4m0 4.02v4m0 4.02v4m0 4.02v4m0 4.02v4m0 4.02v4m0 4.02v4m0 4.02v4m0 4.02v4m0 4.02v4m0 4.03v4.02m0 4v4.02m0 4l.02 4.02m0 4v4.02m0 4v4.02m0 4v4.02m0 4v4.02m0 4v4.02m0 4v4.02m0 4v4.02m0 4v4.02m0 4v4.02m0 4v4.02m0 4v4.02m0 4v4.02m.02 4v4.02m0 4v4.02m0 4v4.02m0 4v4.02m0 4v4.02m0 4v4.02m0 4v4.02m0 4v4.02m0 4V848m0 4V854l-.07.94-.22.9-.08.23m-2.7 3.15l-.2.13-.87.36-.9.23h-2m-3.93 0h-3.95m-3.95 0h-3.94m-3.95 0h-3.95m-3.95 0h-3.94m-3.96 0h-3.95m-3.95 0h-3.95m-3.95 0h-3.95m-3.94.02h-3.95m-3.94 0h-3.94m-3.95 0h-3.95m-3.95 0h-3.94m-3.95 0h-3.95m-3.95 0h-3.94m-3.95 0h-3.96m-3.94 0h-3.95m-3.95.02h-3.95m-3.94 0h-3.94m-3.95 0h-3.93m-3.95 0h-3.95m-3.95 0h-3.94m-3.95 0h-3.95m-3.95 0h-3.94m-3.96 0l-3.95.02m-3.95 0h-3.95m-3.95 0h-3.95m-3.94 0h-3.95m-3.94 0h-3.94m-3.95 0h-3.95m-3.95 0H466l-.94-.07-.9-.22-.23-.08m-3.15-2.7l-.13-.2-.36-.87-.23-.9v-2.02m0-4v-4.02m0-4v-4m0-4.02v-4m0-4.02v-4m0-4.02v-4m0-4.02v-4m0-4.02v-4m0-4.02v-4m0-4.02v-4m0-4.02v-4m0-4.02v-4m0-4.02l-.02-4m0-4.02v-4m0-4.02v-4m0-4.02v-4m0-4.02v-4m0-4.02v-4m0-4.02v-4m0-4.02v-4m0-4.02v-4m0-4.02v-4m0-4.03v-4.02m0-4v-4.02m0-4l-.02-4.02m0-4v-4.02m0-4v-4.02m0-4v-4.02m0-4v-4.02m0-4v-4.02m0-4v-4.02m0-4v-4.02m0-4v-4.02m0-4v-4.02m0-4v-4.02m0-4v-4.02m0-4v-4.02m-.02-4v-4.02m0-4v-4.02m0-4v-4.02m0-4v-4.02m0-4v-4.02m0-4v-4.02m0-4v-4.02m0-4v-4.02m0-4V492m0-4V486l.07-.94.22-.9.08-.23" stroke="#147eba" fill="none"/><use xlink:href="#g" transform="matrix(1,0,0,1,460,500) translate(47.32499999999999 14.4)"/><use xlink:href="#h" transform="matrix(1,0,0,1,460,500) translate(136.725 14.4)"/><use xlink:href="#i" transform="matrix(1,0,0,1,460,500) translate(182.675 14.4)"/><path d="M740 486a6 6 0 0 1 6-6h228a6 6 0 0 1 6 6v368a6 6 0 0 1-6 6H746a6 6 0 0 1-6-6z" fill="#fff" fill-opacity="0"/><path d="M743.08 480.78l.2-.13.87-.36.9-.23h2m3.93 0h3.95m3.95 0h3.94m3.95 0h3.95m3.95 0h3.94m3.96 0h3.95m3.95 0h3.95m3.95 0h3.95m3.94-.02h3.95m3.94 0h3.94m3.95 0h3.95m3.95 0h3.94m3.95 0h3.95m3.95 0h3.94m3.95 0h3.96m3.94 0h3.95m3.95-.02h3.95m3.94 0h3.94m3.95 0h3.93m3.95 0h3.95m3.95 0h3.94m3.95 0h3.95m3.95 0h3.94m3.96 0l3.95-.02m3.95 0h3.95m3.95 0h3.95m3.94 0h3.95m3.94 0h3.94m3.95 0h3.95m3.95 0H974l.94.07.9.22.23.08m3.15 2.7l.13.2.36.87.23.9v2.02m0 4v4.02m0 4v4m0 4.02v4m0 4.02v4m0 4.02v4m0 4.02v4m0 4.02v4m0 4.02v4m0 4.02v4m0 4.02v4m0 4.02v4m0 4.02l.02 4m0 4.02v4m0 4.02v4m0 4.02v4m0 4.02v4m0 4.02v4m0 4.02v4m0 4.02v4m0 4.02v4m0 4.02v4m0 4.03v4.02m0 4v4.02m0 4l.02 4.02m0 4v4.02m0 4v4.02m0 4v4.02m0 4v4.02m0 4v4.02m0 4v4.02m0 4v4.02m0 4v4.02m0 4v4.02m0 4v4.02m0 4v4.02m0 4v4.02m.02 4v4.02m0 4v4.02m0 4v4.02m0 4v4.02m0 4v4.02m0 4v4.02m0 4v4.02m0 4v4.02m0 4V848m0 4V854l-.07.94-.22.9-.08.23m-2.7 3.15l-.2.13-.87.36-.9.23h-2m-3.93 0h-3.95m-3.95 0h-3.94m-3.95 0h-3.95m-3.95 0h-3.94m-3.96 0h-3.95m-3.95 0h-3.95m-3.95 0h-3.95m-3.94.02h-3.95m-3.94 0h-3.94m-3.95 0h-3.95m-3.95 0h-3.94m-3.95 0h-3.95m-3.95 0h-3.94m-3.95 0h-3.96m-3.94 0h-3.95m-3.95.02h-3.95m-3.94 0h-3.94m-3.95 0h-3.93m-3.95 0h-3.95m-3.95 0h-3.94m-3.95 0h-3.95m-3.95 0h-3.94m-3.96 0l-3.95.02m-3.95 0h-3.95m-3.95 0h-3.95m-3.94 0h-3.95m-3.94 0h-3.94m-3.95 0h-3.95m-3.95 0H746l-.94-.07-.9-.22-.23-.08m-3.15-2.7l-.13-.2-.36-.87-.23-.9v-2.02m0-4v-4.02m0-4v-4m0-4.02v-4m0-4.02v-4m0-4.02v-4m0-4.02v-4m0-4.02v-4m0-4.02v-4m0-4.02v-4m0-4.02v-4m0-4.02v-4m0-4.02l-.02-4m0-4.02v-4m0-4.02v-4m0-4.02v-4m0-4.02v-4m0-4.02v-4m0-4.02v-4m0-4.02v-4m0-4.02v-4m0-4.02v-4m0-4.03v-4.02m0-4v-4.02m0-4l-.02-4.02m0-4v-4.02m0-4v-4.02m0-4v-4.02m0-4v-4.02m0-4v-4.02m0-4v-4.02m0-4v-4.02m0-4v-4.02m0-4v-4.02m0-4v-4.02m0-4v-4.02m0-4v-4.02m-.02-4v-4.02m0-4v-4.02m0-4v-4.02m0-4v-4.02m0-4v-4.02m0-4v-4.02m0-4v-4.02m0-4v-4.02m0-4V492m0-4V486l.07-.94.22-.9.08-.23" stroke="#147eba" fill="none"/><use xlink:href="#g" transform="matrix(1,0,0,1,740,500) translate(47.32499999999999 14.4)"/><use xlink:href="#h" transform="matrix(1,0,0,1,740,500) translate(136.725 14.4)"/><use xlink:href="#j" transform="matrix(1,0,0,1,740,500) translate(182.675 14.4)"/><path d="M480 706a6 6 0 0 1 6-6h188a6 6 0 0 1 6 6v128a6 6 0 0 1-6 6H486a6 6 0 0 1-6-6z" fill="#147eba" fill-opacity=".13"/><path d="M480 700h56v56h-56v-56z" stroke="#fff" stroke-opacity="0" fill="#147eba"/><path d="M523.38 722.18c-.15-.17-.34-.25-.56-.25h-5.15v-5.58c-.03-2.54-.96-4.7-2.84-6.4-1.9-1.84-4.15-2.75-6.77-2.75-2.65 0-4.9.83-6.8 2.62-1.9 1.7-2.87 3.87-2.9 6.4v5.66h-5.15c-.24 0-.43.1-.58.25-.16.17-.22.34-.22.6V748c0 .43.34.8.8.8h29.6c.46 0 .8-.37.8-.8v-25.28c0-.2-.06-.38-.22-.54zm-23.46-5.9c.03-2.13.8-3.88 2.37-5.3 1.6-1.5 3.52-2.2 5.73-2.2 2.22 0 4.12.75 5.7 2.25 1.54 1.4 2.32 3.2 2.32 5.32v5.58H499.9zm22.1 30.94h-28.03v-23.7h28z" stroke="#fff" stroke-opacity="0" fill="#fff"/><path d="M507.2 737.3v6.25h1.6v-6.23c2.13-.4 3.62-2.2 3.63-4.35 0-2.43-1.97-4.4-4.4-4.43-2.2-.03-4.06 1.5-4.44 3.68-.42 2.4 1.2 4.68 3.6 5.1zm.82-7.15c.78 0 1.44.27 2 .82.54.56.82 1.22.8 2 .03 1.55-1.2 2.8-2.74 2.82h-.06c-1.56.1-2.92-1.06-3.04-2.62-.12-1.56 1.05-2.93 2.6-3.03.16-.02.28-.02.44 0z" stroke="#fff" stroke-opacity="0" fill="#fff"/><use xlink:href="#k" transform="matrix(1,0,0,1,551,720) translate(0 14.4)"/><use xlink:href="#l" transform="matrix(1,0,0,1,551,720) translate(60.9 14.4)"/><path d="M760 706a6 6 0 0 1 6-6h188a6 6 0 0 1 6 6v128a6 6 0 0 1-6 6H766a6 6 0 0 1-6-6z" fill="#147eba" fill-opacity=".13"/><path d="M760 700h56v56h-56v-56z" stroke="#fff" stroke-opacity="0" fill="#147eba"/><path d="M803.38 722.18c-.15-.17-.34-.25-.56-.25h-5.15v-5.58c-.03-2.54-.96-4.7-2.84-6.4-1.9-1.84-4.15-2.75-6.77-2.75-2.65 0-4.9.83-6.8 2.62-1.9 1.7-2.87 3.87-2.9 6.4v5.66h-5.15c-.24 0-.43.1-.58.25-.16.17-.22.34-.22.6V748c0 .43.34.8.8.8h29.6c.46 0 .8-.37.8-.8v-25.28c0-.2-.06-.38-.22-.54zm-23.46-5.9c.03-2.13.8-3.88 2.37-5.3 1.6-1.5 3.52-2.2 5.73-2.2 2.22 0 4.12.75 5.7 2.25 1.54 1.4 2.32 3.2 2.32 5.32v5.58H779.9zm22.1 30.94h-28.03v-23.7h28z" stroke="#fff" stroke-opacity="0" fill="#fff"/><path d="M787.2 737.3v6.25h1.6v-6.23c2.13-.4 3.62-2.2 3.63-4.35 0-2.43-1.97-4.4-4.4-4.43-2.2-.03-4.06 1.5-4.44 3.68-.42 2.4 1.2 4.68 3.6 5.1zm.82-7.15c.78 0 1.44.27 2 .82.54.56.82 1.22.8 2 .03 1.55-1.2 2.8-2.74 2.82h-.06c-1.56.1-2.92-1.06-3.04-2.62-.12-1.56 1.05-2.93 2.6-3.03.16-.02.28-.02.44 0z" stroke="#fff" stroke-opacity="0" fill="#fff"/><use xlink:href="#k" transform="matrix(1,0,0,1,831,720) translate(0 14.4)"/><use xlink:href="#l" transform="matrix(1,0,0,1,831,720) translate(60.9 14.4)"/><path d="M480 546a6 6 0 0 1 6-6h188a6 6 0 0 1 6 6v128a6 6 0 0 1-6 6H486a6 6 0 0 1-6-6z" fill="#248814" fill-opacity=".13"/><path d="M480 540h56v56h-56v-56z" stroke="#fff" stroke-opacity="0" fill="#248814"/><path d="M523.38 562.18c-.15-.17-.34-.25-.56-.25h-5.15v-5.58c-.03-2.54-.96-4.7-2.84-6.4-1.9-1.84-4.15-2.75-6.77-2.75-2.65 0-4.9.83-6.8 2.62-1.9 1.7-2.87 3.87-2.9 6.4v5.66h-5.15c-.24 0-.43.1-.58.25-.16.17-.22.34-.22.6V588c0 .43.34.8.8.8h29.6c.46 0 .8-.37.8-.8v-25.28c0-.2-.06-.38-.22-.54zm-23.46-5.9c.03-2.13.8-3.88 2.37-5.3 1.6-1.5 3.52-2.2 5.73-2.2 2.22 0 4.12.75 5.7 2.25 1.54 1.4 2.32 3.2 2.32 5.32v5.58H499.9zm22.1 30.94h-28.03v-23.7h28z" stroke="#fff" stroke-opacity="0" fill="#fff"/><path d="M507.2 577.3v6.25h1.6v-6.23c2.13-.4 3.62-2.2 3.63-4.35 0-2.43-1.97-4.4-4.4-4.43-2.2-.03-4.06 1.5-4.44 3.68-.42 2.4 1.2 4.68 3.6 5.1zm.82-7.15c.78 0 1.44.27 2 .82.54.56.82 1.22.8 2 .03 1.55-1.2 2.8-2.74 2.82h-.06c-1.56.1-2.92-1.06-3.04-2.62-.12-1.56 1.05-2.93 2.6-3.03.16-.02.28-.02.44 0z" stroke="#fff" stroke-opacity="0" fill="#fff"/><use xlink:href="#m" transform="matrix(1,0,0,1,551,560) translate(0 14.4)"/><use xlink:href="#n" transform="matrix(1,0,0,1,551,560) translate(53.900000000000006 14.4)"/><path d="M760 546a6 6 0 0 1 6-6h188a6 6 0 0 1 6 6v128a6 6 0 0 1-6 6H766a6 6 0 0 1-6-6z" fill="#248814" fill-opacity=".13"/><path d="M760 540h56v56h-56v-56z" stroke="#fff" stroke-opacity="0" fill="#248814"/><path d="M803.38 562.18c-.15-.17-.34-.25-.56-.25h-5.15v-5.58c-.03-2.54-.96-4.7-2.84-6.4-1.9-1.84-4.15-2.75-6.77-2.75-2.65 0-4.9.83-6.8 2.62-1.9 1.7-2.87 3.87-2.9 6.4v5.66h-5.15c-.24 0-.43.1-.58.25-.16.17-.22.34-.22.6V588c0 .43.34.8.8.8h29.6c.46 0 .8-.37.8-.8v-25.28c0-.2-.06-.38-.22-.54zm-23.46-5.9c.03-2.13.8-3.88 2.37-5.3 1.6-1.5 3.52-2.2 5.73-2.2 2.22 0 4.12.75 5.7 2.25 1.54 1.4 2.32 3.2 2.32 5.32v5.58H779.9zm22.1 30.94h-28.03v-23.7h28z" stroke="#fff" stroke-opacity="0" fill="#fff"/><path d="M787.2 577.3v6.25h1.6v-6.23c2.13-.4 3.62-2.2 3.63-4.35 0-2.43-1.97-4.4-4.4-4.43-2.2-.03-4.06 1.5-4.44 3.68-.42 2.4 1.2 4.68 3.6 5.1zm.82-7.15c.78 0 1.44.27 2 .82.54.56.82 1.22.8 2 .03 1.55-1.2 2.8-2.74 2.82h-.06c-1.56.1-2.92-1.06-3.04-2.62-.12-1.56 1.05-2.93 2.6-3.03.16-.02.28-.02.44 0z" stroke="#fff" stroke-opacity="0" fill="#fff"/><use xlink:href="#m" transform="matrix(1,0,0,1,831,560) translate(0 14.4)"/><use xlink:href="#n" transform="matrix(1,0,0,1,831,560) translate(53.900000000000006 14.4)"/><path d="M1140 486a6 6 0 0 1 6-6h228a6 6 0 0 1 6 6v368a6 6 0 0 1-6 6h-228a6 6 0 0 1-6-6z" fill="#fff" fill-opacity="0"/><path d="M1143.08 480.78l.2-.13.87-.36.9-.23h2m3.93 0h3.95m3.95 0h3.94m3.95 0h3.95m3.95 0h3.94m3.96 0h3.95m3.95 0h3.95m3.95 0h3.95m3.94-.02h3.95m3.94 0h3.94m3.95 0h3.95m3.95 0h3.94m3.95 0h3.95m3.95 0h3.94m3.95 0h3.96m3.94 0h3.95m3.95-.02h3.95m3.94 0h3.94m3.95 0h3.93m3.95 0h3.95m3.95 0h3.94m3.95 0h3.95m3.95 0h3.94m3.96 0l3.95-.02m3.95 0h3.95m3.95 0h3.95m3.94 0h3.95m3.94 0h3.94m3.95 0h3.95m3.95 0h1.97l.94.07.9.22.23.08m3.15 2.7l.13.2.36.87.23.9v2.02m0 4v4.02m0 4v4m0 4.02v4m0 4.02v4m0 4.02v4m0 4.02v4m0 4.02v4m0 4.02v4m0 4.02v4m0 4.02v4m0 4.02v4m0 4.02l.02 4m0 4.02v4m0 4.02v4m0 4.02v4m0 4.02v4m0 4.02v4m0 4.02v4m0 4.02v4m0 4.02v4m0 4.02v4m0 4.03v4.02m0 4v4.02m0 4l.02 4.02m0 4v4.02m0 4v4.02m0 4v4.02m0 4v4.02m0 4v4.02m0 4v4.02m0 4v4.02m0 4v4.02m0 4v4.02m0 4v4.02m0 4v4.02m0 4v4.02m.02 4v4.02m0 4v4.02m0 4v4.02m0 4v4.02m0 4v4.02m0 4v4.02m0 4v4.02m0 4v4.02m0 4V848m0 4V854l-.07.94-.22.9-.08.23m-2.7 3.15l-.2.13-.87.36-.9.23h-2m-3.93 0h-3.95m-3.95 0h-3.94m-3.95 0h-3.95m-3.95 0h-3.94m-3.96 0h-3.95m-3.95 0h-3.95m-3.95 0h-3.95m-3.94.02h-3.95m-3.94 0h-3.94m-3.95 0h-3.95m-3.95 0h-3.94m-3.95 0h-3.95m-3.95 0h-3.94m-3.95 0h-3.96m-3.94 0h-3.95m-3.95.02h-3.95m-3.94 0h-3.94m-3.95 0h-3.93m-3.95 0h-3.95m-3.95 0h-3.94m-3.95 0h-3.95m-3.95 0h-3.94m-3.96 0l-3.95.02m-3.95 0h-3.95m-3.95 0h-3.95m-3.94 0h-3.95m-3.94 0h-3.94m-3.95 0h-3.95m-3.95 0H1146l-.94-.07-.9-.22-.23-.08m-3.15-2.7l-.13-.2-.36-.87-.23-.9v-2.02m0-4v-4.02m0-4v-4m0-4.02v-4m0-4.02v-4m0-4.02v-4m0-4.02v-4m0-4.02v-4m0-4.02v-4m0-4.02v-4m0-4.02v-4m0-4.02v-4m0-4.02l-.02-4m0-4.02v-4m0-4.02v-4m0-4.02v-4m0-4.02v-4m0-4.02v-4m0-4.02v-4m0-4.02v-4m0-4.02v-4m0-4.02v-4m0-4.03v-4.02m0-4v-4.02m0-4l-.02-4.02m0-4v-4.02m0-4v-4.02m0-4v-4.02m0-4v-4.02m0-4v-4.02m0-4v-4.02m0-4v-4.02m0-4v-4.02m0-4v-4.02m0-4v-4.02m0-4v-4.02m0-4v-4.02m-.02-4v-4.02m0-4v-4.02m0-4v-4.02m0-4v-4.02m0-4v-4.02m0-4v-4.02m0-4v-4.02m0-4v-4.02m0-4V492m0-4V486l.07-.94.22-.9.08-.23" stroke="#147eba" fill="none"/><use xlink:href="#g" transform="matrix(1,0,0,1,1140,500) translate(47.32499999999999 14.4)"/><use xlink:href="#h" transform="matrix(1,0,0,1,1140,500) translate(136.725 14.4)"/><use xlink:href="#i" transform="matrix(1,0,0,1,1140,500) translate(182.675 14.4)"/><path d="M1420 486a6 6 0 0 1 6-6h228a6 6 0 0 1 6 6v368a6 6 0 0 1-6 6h-228a6 6 0 0 1-6-6z" fill="#fff" fill-opacity="0"/><path d="M1423.08 480.78l.2-.13.87-.36.9-.23h2m3.93 0h3.95m3.95 0h3.94m3.95 0h3.95m3.95 0h3.94m3.96 0h3.95m3.95 0h3.95m3.95 0h3.95m3.94-.02h3.95m3.94 0h3.94m3.95 0h3.95m3.95 0h3.94m3.95 0h3.95m3.95 0h3.94m3.95 0h3.96m3.94 0h3.95m3.95-.02h3.95m3.94 0h3.94m3.95 0h3.93m3.95 0h3.95m3.95 0h3.94m3.95 0h3.95m3.95 0h3.94m3.96 0l3.95-.02m3.95 0h3.95m3.95 0h3.95m3.94 0h3.95m3.94 0h3.94m3.95 0h3.95m3.95 0h1.97l.94.07.9.22.23.08m3.15 2.7l.13.2.36.87.23.9v2.02m0 4v4.02m0 4v4m0 4.02v4m0 4.02v4m0 4.02v4m0 4.02v4m0 4.02v4m0 4.02v4m0 4.02v4m0 4.02v4m0 4.02v4m0 4.02l.02 4m0 4.02v4m0 4.02v4m0 4.02v4m0 4.02v4m0 4.02v4m0 4.02v4m0 4.02v4m0 4.02v4m0 4.02v4m0 4.03v4.02m0 4v4.02m0 4l.02 4.02m0 4v4.02m0 4v4.02m0 4v4.02m0 4v4.02m0 4v4.02m0 4v4.02m0 4v4.02m0 4v4.02m0 4v4.02m0 4v4.02m0 4v4.02m0 4v4.02m.02 4v4.02m0 4v4.02m0 4v4.02m0 4v4.02m0 4v4.02m0 4v4.02m0 4v4.02m0 4v4.02m0 4V848m0 4V854l-.07.94-.22.9-.08.23m-2.7 3.15l-.2.13-.87.36-.9.23h-2m-3.93 0h-3.95m-3.95 0h-3.94m-3.95 0h-3.95m-3.95 0h-3.94m-3.96 0h-3.95m-3.95 0h-3.95m-3.95 0h-3.95m-3.94.02h-3.95m-3.94 0h-3.94m-3.95 0h-3.95m-3.95 0h-3.94m-3.95 0h-3.95m-3.95 0h-3.94m-3.95 0h-3.96m-3.94 0h-3.95m-3.95.02h-3.95m-3.94 0h-3.94m-3.95 0h-3.93m-3.95 0h-3.95m-3.95 0h-3.94m-3.95 0h-3.95m-3.95 0h-3.94m-3.96 0l-3.95.02m-3.95 0h-3.95m-3.95 0h-3.95m-3.94 0h-3.95m-3.94 0h-3.94m-3.95 0h-3.95m-3.95 0H1426l-.94-.07-.9-.22-.23-.08m-3.15-2.7l-.13-.2-.36-.87-.23-.9v-2.02m0-4v-4.02m0-4v-4m0-4.02v-4m0-4.02v-4m0-4.02v-4m0-4.02v-4m0-4.02v-4m0-4.02v-4m0-4.02v-4m0-4.02v-4m0-4.02v-4m0-4.02l-.02-4m0-4.02v-4m0-4.02v-4m0-4.02v-4m0-4.02v-4m0-4.02v-4m0-4.02v-4m0-4.02v-4m0-4.02v-4m0-4.02v-4m0-4.03v-4.02m0-4v-4.02m0-4l-.02-4.02m0-4v-4.02m0-4v-4.02m0-4v-4.02m0-4v-4.02m0-4v-4.02m0-4v-4.02m0-4v-4.02m0-4v-4.02m0-4v-4.02m0-4v-4.02m0-4v-4.02m0-4v-4.02m-.02-4v-4.02m0-4v-4.02m0-4v-4.02m0-4v-4.02m0-4v-4.02m0-4v-4.02m0-4v-4.02m0-4v-4.02m0-4V492m0-4V486l.07-.94.22-.9.08-.23" stroke="#147eba" fill="none"/><use xlink:href="#g" transform="matrix(1,0,0,1,1420,500) translate(47.32499999999999 14.4)"/><use xlink:href="#h" transform="matrix(1,0,0,1,1420,500) translate(136.725 14.4)"/><use xlink:href="#j" transform="matrix(1,0,0,1,1420,500) translate(182.675 14.4)"/><path d="M1160 706a6 6 0 0 1 6-6h188a6 6 0 0 1 6 6v128a6 6 0 0 1-6 6h-188a6 6 0 0 1-6-6z" fill="#147eba" fill-opacity=".13"/><path d="M1160 700h56v56h-56v-56z" stroke="#fff" stroke-opacity="0" fill="#147eba"/><path d="M1203.38 722.18c-.15-.17-.34-.25-.56-.25h-5.15v-5.58c-.03-2.54-.96-4.7-2.84-6.4-1.9-1.84-4.15-2.75-6.77-2.75-2.65 0-4.9.83-6.8 2.62-1.9 1.7-2.87 3.87-2.9 6.4v5.66h-5.15c-.24 0-.43.1-.58.25-.16.17-.22.34-.22.6V748c0 .43.34.8.8.8h29.6c.46 0 .8-.37.8-.8v-25.28c0-.2-.06-.38-.22-.54zm-23.46-5.9c.03-2.13.8-3.88 2.37-5.3 1.6-1.5 3.52-2.2 5.73-2.2 2.22 0 4.12.75 5.7 2.25 1.54 1.4 2.32 3.2 2.32 5.32v5.58h-16.16zm22.1 30.94h-28.03v-23.7h28z" stroke="#fff" stroke-opacity="0" fill="#fff"/><path d="M1187.2 737.3v6.25h1.6v-6.23c2.13-.4 3.62-2.2 3.63-4.35 0-2.43-1.97-4.4-4.4-4.43-2.2-.03-4.06 1.5-4.44 3.68-.42 2.4 1.2 4.68 3.6 5.1zm.82-7.15c.78 0 1.44.27 2 .82.54.56.82 1.22.8 2 .03 1.55-1.2 2.8-2.74 2.82h-.06c-1.56.1-2.92-1.06-3.04-2.62-.12-1.56 1.05-2.93 2.6-3.03.16-.02.28-.02.44 0z" stroke="#fff" stroke-opacity="0" fill="#fff"/><use xlink:href="#k" transform="matrix(1,0,0,1,1231,720) translate(0 14.4)"/><use xlink:href="#l" transform="matrix(1,0,0,1,1231,720) translate(60.9 14.4)"/><path d="M1440 706a6 6 0 0 1 6-6h188a6 6 0 0 1 6 6v128a6 6 0 0 1-6 6h-188a6 6 0 0 1-6-6z" fill="#147eba" fill-opacity=".13"/><path d="M1440 700h56v56h-56v-56z" stroke="#fff" stroke-opacity="0" fill="#147eba"/><path d="M1483.38 722.18c-.15-.17-.34-.25-.56-.25h-5.15v-5.58c-.03-2.54-.96-4.7-2.84-6.4-1.9-1.84-4.15-2.75-6.77-2.75-2.65 0-4.9.83-6.8 2.62-1.9 1.7-2.87 3.87-2.9 6.4v5.66h-5.15c-.24 0-.43.1-.58.25-.16.17-.22.34-.22.6V748c0 .43.34.8.8.8h29.6c.46 0 .8-.37.8-.8v-25.28c0-.2-.06-.38-.22-.54zm-23.46-5.9c.03-2.13.8-3.88 2.37-5.3 1.6-1.5 3.52-2.2 5.73-2.2 2.22 0 4.12.75 5.7 2.25 1.54 1.4 2.32 3.2 2.32 5.32v5.58h-16.16zm22.1 30.94h-28.03v-23.7h28z" stroke="#fff" stroke-opacity="0" fill="#fff"/><path d="M1467.2 737.3v6.25h1.6v-6.23c2.13-.4 3.62-2.2 3.63-4.35 0-2.43-1.97-4.4-4.4-4.43-2.2-.03-4.06 1.5-4.44 3.68-.42 2.4 1.2 4.68 3.6 5.1zm.82-7.15c.78 0 1.44.27 2 .82.54.56.82 1.22.8 2 .03 1.55-1.2 2.8-2.74 2.82h-.06c-1.56.1-2.92-1.06-3.04-2.62-.12-1.56 1.05-2.93 2.6-3.03.16-.02.28-.02.44 0z" stroke="#fff" stroke-opacity="0" fill="#fff"/><use xlink:href="#k" transform="matrix(1,0,0,1,1511,720) translate(0 14.4)"/><use xlink:href="#l" transform="matrix(1,0,0,1,1511,720) translate(60.9 14.4)"/><path d="M1160 546a6 6 0 0 1 6-6h188a6 6 0 0 1 6 6v128a6 6 0 0 1-6 6h-188a6 6 0 0 1-6-6z" fill="#248814" fill-opacity=".13"/><path d="M1160 540h56v56h-56v-56z" stroke="#fff" stroke-opacity="0" fill="#248814"/><path d="M1203.38 562.18c-.15-.17-.34-.25-.56-.25h-5.15v-5.58c-.03-2.54-.96-4.7-2.84-6.4-1.9-1.84-4.15-2.75-6.77-2.75-2.65 0-4.9.83-6.8 2.62-1.9 1.7-2.87 3.87-2.9 6.4v5.66h-5.15c-.24 0-.43.1-.58.25-.16.17-.22.34-.22.6V588c0 .43.34.8.8.8h29.6c.46 0 .8-.37.8-.8v-25.28c0-.2-.06-.38-.22-.54zm-23.46-5.9c.03-2.13.8-3.88 2.37-5.3 1.6-1.5 3.52-2.2 5.73-2.2 2.22 0 4.12.75 5.7 2.25 1.54 1.4 2.32 3.2 2.32 5.32v5.58h-16.16zm22.1 30.94h-28.03v-23.7h28z" stroke="#fff" stroke-opacity="0" fill="#fff"/><path d="M1187.2 577.3v6.25h1.6v-6.23c2.13-.4 3.62-2.2 3.63-4.35 0-2.43-1.97-4.4-4.4-4.43-2.2-.03-4.06 1.5-4.44 3.68-.42 2.4 1.2 4.68 3.6 5.1zm.82-7.15c.78 0 1.44.27 2 .82.54.56.82 1.22.8 2 .03 1.55-1.2 2.8-2.74 2.82h-.06c-1.56.1-2.92-1.06-3.04-2.62-.12-1.56 1.05-2.93 2.6-3.03.16-.02.28-.02.44 0z" stroke="#fff" stroke-opacity="0" fill="#fff"/><use xlink:href="#m" transform="matrix(1,0,0,1,1231,560) translate(0 14.4)"/><use xlink:href="#n" transform="matrix(1,0,0,1,1231,560) translate(53.900000000000006 14.4)"/><path d="M1440 546a6 6 0 0 1 6-6h188a6 6 0 0 1 6 6v128a6 6 0 0 1-6 6h-188a6 6 0 0 1-6-6z" fill="#248814" fill-opacity=".13"/><path d="M1440 540h56v56h-56v-56z" stroke="#fff" stroke-opacity="0" fill="#248814"/><path d="M1483.38 562.18c-.15-.17-.34-.25-.56-.25h-5.15v-5.58c-.03-2.54-.96-4.7-2.84-6.4-1.9-1.84-4.15-2.75-6.77-2.75-2.65 0-4.9.83-6.8 2.62-1.9 1.7-2.87 3.87-2.9 6.4v5.66h-5.15c-.24 0-.43.1-.58.25-.16.17-.22.34-.22.6V588c0 .43.34.8.8.8h29.6c.46 0 .8-.37.8-.8v-25.28c0-.2-.06-.38-.22-.54zm-23.46-5.9c.03-2.13.8-3.88 2.37-5.3 1.6-1.5 3.52-2.2 5.73-2.2 2.22 0 4.12.75 5.7 2.25 1.54 1.4 2.32 3.2 2.32 5.32v5.58h-16.16zm22.1 30.94h-28.03v-23.7h28z" stroke="#fff" stroke-opacity="0" fill="#fff"/><path d="M1467.2 577.3v6.25h1.6v-6.23c2.13-.4 3.62-2.2 3.63-4.35 0-2.43-1.97-4.4-4.4-4.43-2.2-.03-4.06 1.5-4.44 3.68-.42 2.4 1.2 4.68 3.6 5.1zm.82-7.15c.78 0 1.44.27 2 .82.54.56.82 1.22.8 2 .03 1.55-1.2 2.8-2.74 2.82h-.06c-1.56.1-2.92-1.06-3.04-2.62-.12-1.56 1.05-2.93 2.6-3.03.16-.02.28-.02.44 0z" stroke="#fff" stroke-opacity="0" fill="#fff"/><g><use xlink:href="#m" transform="matrix(1,0,0,1,1511,560) translate(0 14.4)"/><use xlink:href="#n" transform="matrix(1,0,0,1,1511,560) translate(53.900000000000006 14.4)"/></g><path d="M1090 690c0 16.56-13.44 30-30 30-16.56 0-30-13.44-30-30 0-16.56 13.44-30 30-30 16.56 0 30 13.44 30 30zm-2.7 0c0-15.06-12.24-27.3-27.3-27.3s-27.3 12.24-27.3 27.3 12.24 27.3 27.3 27.3 27.3-12.24 27.3-27.3zm-15.54 2.22c0 3.66-2.64 5.04-4.98 5.04H1053.76c-2.82 0-5.34-2.16-5.46-4.74 0-.12-.06-.18-.06-.3 0-2.1 1.08-3.78 2.82-4.56.18-2.4 1.8-4.86 3.96-5.76 2.64-1.08 5.4-.54 7.44 1.5.36.36.72.78 1.02 1.26 1.68-.66 4.08.12 4.74 2.76 2.22.78 3.54 2.52 3.54 4.8zm-2.76 0c0-.54 0-1.92-2.28-2.34-.6-.12-1.02-.66-1.08-1.26-.06-.9-.42-1.5-.96-1.5-.24 0-.48.18-.66.36-.3.42-.78.6-1.32.54-.48-.06-.9-.42-1.08-.9-.24-.72-.66-1.32-1.08-1.8-.48-.42-1.44-1.2-2.82-1.2-.48 0-1.02.06-1.62.3-1.26.54-2.28 2.1-2.28 3.54v.48c.12.66-.36 1.32-1.02 1.44-1.2.36-1.8 1.08-1.8 2.34v.18c.06 1.14 1.38 2.16 2.76 2.16h12.84c2.4 0 2.4-1.74 2.4-2.34zm-7.62 18.18l3.6-3.6 1.92 1.92-5.94 5.94c-.24.24-.6.42-.96.42s-.72-.18-.96-.42l-5.94-5.94 1.92-1.92 3.6 3.6v-10.86h2.76zm-6.36-37.2l-1.92-1.92 5.94-5.94c.54-.54 1.38-.54 1.92 0l5.94 5.94-1.92 1.92-3.6-3.6v9.84h-2.76v-9.84zm29.64 15.84c.24.24.42.6.42.96s-.18.72-.42.96l-5.94 5.94-1.92-1.92 3.6-3.6h-6.78v-2.76h6.78l-3.6-3.6 1.92-1.92zm-41.46-4.02l-3.6 3.6h6.78v2.76h-6.78l3.6 3.6-1.92 1.92-5.94-5.94c-.24-.24-.42-.6-.42-.96s.18-.72.42-.96l5.94-5.94z" stroke="#000" stroke-opacity="0" fill="#4d27aa"/><g><use xlink:href="#o" transform="matrix(1,0,0,1,1000,729) translate(8.074999999999996 14.4)"/><use xlink:href="#p" transform="matrix(1,0,0,1,1000,729) translate(50.025 14.4)"/><use xlink:href="#q" transform="matrix(1,0,0,1,1000,729) translate(14.549999999999997 36)"/></g><path d="M1000.97 690.2h28.54" stroke="#3a414a" fill="none"/><path d="M1000.98 690.7h-.5v-1h.5zM1030 690l.03.7h-.54v-1h.52z" stroke="#3a414a" stroke-width=".05" fill="#3a414a"/><path d="M1090.5 690h28.54" stroke="#3a414a" fill="none"/><path d="M1090.5 690.5h-.54l.04-.5-.02-.5h.53zM1119.54 690.5h-.5v-1h.5z" stroke="#3a414a" stroke-width=".05" fill="#3a414a"/><path d="M720 360c16.56 0 30 13.44 30 30 0 16.56-13.44 30-30 30-16.56 0-30-13.44-30-30 0-16.56 13.44-30 30-30zm0 57.24c15.06 0 27.24-12.18 27.24-27.24 0-15.06-12.18-27.24-27.24-27.24-15.06 0-27.24 12.18-27.24 27.24 0 15.06 12.18 27.24 27.24 27.24zm.3-44.64c5.64 0 11.1 1.68 14.88 4.74.3.24.48.66.48 1.02v28.32c0 .78-.6 1.38-1.32 1.38h-4.8c-.78 0-1.38-.6-1.38-1.38v-24.6c-2.34-1.08-4.68-1.98-7.86-1.98-3.36 0-5.88.96-8.52 2.22v24.36c0 .78-.6 1.38-1.38 1.38h-4.74c-.72 0-1.32-.6-1.32-1.38V378.9c0-.36.12-.72.42-1.02 3.84-3.36 9.54-5.28 15.54-5.28zm12.66 32.76v-26.28c-3.3-2.4-7.86-3.78-12.66-3.78-5.1 0-9.9 1.56-13.26 4.26v25.8h1.98v-23.88c0-.48.3-.96.78-1.2 3.12-1.56 6.24-2.94 10.5-2.94 4.08 0 6.9 1.32 9.66 2.52l.12.06c.48.24.84.72.84 1.26v24.18z" stroke="#000" stroke-opacity="0" fill="#4d27aa"/><g><use xlink:href="#r" transform="matrix(1,0,0,1,660,429) translate(42.025 14.4)"/></g><path d="M580 585c16.56 0 30 13.44 30 30 0 16.56-13.44 30-30 30-16.56 0-30-13.44-30-30 0-16.56 13.44-30 30-30zm0 57.3c15.06 0 27.3-12.24 27.3-27.3s-12.24-27.3-27.3-27.3-27.3 12.24-27.3 27.3 12.24 27.3 27.3 27.3zm23.64-27.06c.54.54.54 1.38 0 1.92l-6 5.94c-.24.3-.6.42-.96.42-.18 0-.3 0-.48-.12-.54-.18-.84-.66-.84-1.26v-4.56h-10.44v12.96c0 .72-.6 1.32-1.32 1.32h-10.5v-2.7h9.12v-11.58h-9.36v-2.76h9.36v-11.58h-9.12v-2.7h10.5c.72 0 1.32.6 1.32 1.32v12.96h10.44v-4.62c0-.54.3-1.02.84-1.26.48-.18 1.08-.06 1.44.3zm-38.28-4.86l5.94 4.74c.3.24.54.66.54 1.08 0 .42-.24.78-.54 1.08l-5.94 4.74c-.24.18-.54.3-.9.3-.18 0-.36-.06-.54-.12-.48-.24-.78-.72-.78-1.26v-9.54c0-.48.3-.96.78-1.2.42-.24 1.02-.18 1.44.18zm0 13.08l5.94 4.8c.3.24.54.66.54 1.08 0 .42-.24.78-.54 1.02l-5.94 4.8c-.24.18-.54.3-.9.3-.18 0-.36-.06-.54-.12-.48-.24-.78-.72-.78-1.26v-9.54c0-.54.3-1.02.78-1.2.42-.24 1.02-.18 1.44.12zm0-27.42l5.94 4.8c.3.24.54.6.54 1.02 0 .42-.24.84-.54 1.08l-5.94 4.8c-.24.18-.54.3-.9.3-.18 0-.36-.06-.54-.18-.48-.24-.78-.66-.78-1.2v-9.54c0-.54.3-1.02.78-1.26.42-.24 1.02-.18 1.44.18zm32.7 22.8l2.7-2.64-2.7-2.7zm-32.22-.72l2.46-1.92-2.46-1.92zm0-14.28l2.46-1.98-2.46-1.92zm0 27.42l2.46-1.92-2.46-1.98z" stroke="#000" stroke-opacity="0" fill="#4d27aa"/><g><use xlink:href="#s" transform="matrix(1,0,0,1,520,654) translate(5.424999999999997 14.4)"/><use xlink:href="#t" transform="matrix(1,0,0,1,520,654) translate(44.625 14.4)"/></g><path d="M1540 585c16.56 0 30 13.44 30 30 0 16.56-13.44 30-30 30-16.56 0-30-13.44-30-30 0-16.56 13.44-30 30-30zm0 57.3c15.06 0 27.3-12.24 27.3-27.3s-12.24-27.3-27.3-27.3-27.3 12.24-27.3 27.3 12.24 27.3 27.3 27.3zm23.64-27.06c.54.54.54 1.38 0 1.92l-6 5.94c-.24.3-.6.42-.96.42-.18 0-.3 0-.48-.12-.54-.18-.84-.66-.84-1.26v-4.56h-10.44v12.96c0 .72-.6 1.32-1.32 1.32h-10.5v-2.7h9.12v-11.58h-9.36v-2.76h9.36v-11.58h-9.12v-2.7h10.5c.72 0 1.32.6 1.32 1.32v12.96h10.44v-4.62c0-.54.3-1.02.84-1.26.48-.18 1.08-.06 1.44.3zm-38.28-4.86l5.94 4.74c.3.24.54.66.54 1.08 0 .42-.24.78-.54 1.08l-5.94 4.74c-.24.18-.54.3-.9.3-.18 0-.36-.06-.54-.12-.48-.24-.78-.72-.78-1.26v-9.54c0-.48.3-.96.78-1.2.42-.24 1.02-.18 1.44.18zm0 13.08l5.94 4.8c.3.24.54.66.54 1.08 0 .42-.24.78-.54 1.02l-5.94 4.8c-.24.18-.54.3-.9.3-.18 0-.36-.06-.54-.12-.48-.24-.78-.72-.78-1.26v-9.54c0-.54.3-1.02.78-1.2.42-.24 1.02-.18 1.44.12zm0-27.42l5.94 4.8c.3.24.54.6.54 1.02 0 .42-.24.84-.54 1.08l-5.94 4.8c-.24.18-.54.3-.9.3-.18 0-.36-.06-.54-.18-.48-.24-.78-.66-.78-1.2v-9.54c0-.54.3-1.02.78-1.26.42-.24 1.02-.18 1.44.18zm32.7 22.8l2.7-2.64-2.7-2.7zm-32.22-.72l2.46-1.92-2.46-1.92zm0-14.28l2.46-1.98-2.46-1.92zm0 27.42l2.46-1.92-2.46-1.98z" stroke="#000" stroke-opacity="0" fill="#4d27aa"/><g><use xlink:href="#s" transform="matrix(1,0,0,1,1480,654) translate(5.424999999999997 14.4)"/><use xlink:href="#t" transform="matrix(1,0,0,1,1480,654) translate(44.625 14.4)"/></g><path d="M1400 360c16.56 0 30 13.44 30 30 0 16.56-13.44 30-30 30-16.56 0-30-13.44-30-30 0-16.56 13.44-30 30-30zm0 57.24c15.06 0 27.24-12.18 27.24-27.24 0-15.06-12.18-27.24-27.24-27.24-15.06 0-27.24 12.18-27.24 27.24 0 15.06 12.18 27.24 27.24 27.24zm.3-44.64c5.64 0 11.1 1.68 14.88 4.74.3.24.48.66.48 1.02v28.32c0 .78-.6 1.38-1.32 1.38h-4.8c-.78 0-1.38-.6-1.38-1.38v-24.6c-2.34-1.08-4.68-1.98-7.86-1.98-3.36 0-5.88.96-8.52 2.22v24.36c0 .78-.6 1.38-1.38 1.38h-4.74c-.72 0-1.32-.6-1.32-1.38V378.9c0-.36.12-.72.42-1.02 3.84-3.36 9.54-5.28 15.54-5.28zm12.66 32.76v-26.28c-3.3-2.4-7.86-3.78-12.66-3.78-5.1 0-9.9 1.56-13.26 4.26v25.8h1.98v-23.88c0-.48.3-.96.78-1.2 3.12-1.56 6.24-2.94 10.5-2.94 4.08 0 6.9 1.32 9.66 2.52l.12.06c.48.24.84.72.84 1.26v24.18z" stroke="#000" stroke-opacity="0" fill="#4d27aa"/><g><use xlink:href="#r" transform="matrix(1,0,0,1,1340,429) translate(42.025 14.4)"/></g><defs><path fill="#232f3e" d="M205 0l-28-72H64L36 0H1l101-248h38L239 0h-34zm-38-99l-47-123c-12 45-31 82-46 123h93" id="u"/><path fill="#232f3e" d="M266 0h-40l-56-210L115 0H75L2-248h35L96-30l15-64 43-154h32l59 218 59-218h35" id="v"/><path fill="#232f3e" d="M185-189c-5-48-123-54-124 2 14 75 158 14 163 119 3 78-121 87-175 55-17-10-28-26-33-46l33-7c5 56 141 63 141-1 0-78-155-14-162-118-5-82 145-84 179-34 5 7 8 16 11 25" id="w"/><g id="a"><use transform="matrix(0.05,0,0,0.05,0,0)" xlink:href="#u"/><use transform="matrix(0.05,0,0,0.05,11.35,0)" xlink:href="#v"/><use transform="matrix(0.05,0,0,0.05,28.299999999999997,0)" xlink:href="#w"/></g><path fill="#232f3e" d="M212-179c-10-28-35-45-73-45-59 0-87 40-87 99 0 60 29 101 89 101 43 0 62-24 78-52l27 14C228-24 195 4 139 4 59 4 22-46 18-125c-6-104 99-153 187-111 19 9 31 26 39 46" id="x"/><path fill="#232f3e" d="M24 0v-261h32V0H24" id="y"/><path fill="#232f3e" d="M100-194c62-1 85 37 85 99 1 63-27 99-86 99S16-35 15-95c0-66 28-99 85-99zM99-20c44 1 53-31 53-75 0-43-8-75-51-75s-53 32-53 75 10 74 51 75" id="z"/><path fill="#232f3e" d="M84 4C-5 8 30-112 23-190h32v120c0 31 7 50 39 49 72-2 45-101 50-169h31l1 190h-30c-1-10 1-25-2-33-11 22-28 36-60 37" id="A"/><path fill="#232f3e" d="M85-194c31 0 48 13 60 33l-1-100h32l1 261h-30c-2-10 0-23-3-31C134-8 116 4 85 4 32 4 16-35 15-94c0-66 23-100 70-100zm9 24c-40 0-46 34-46 75 0 40 6 74 45 74 42 0 51-32 51-76 0-42-9-74-50-73" id="B"/><g id="b"><use transform="matrix(0.05,0,0,0.05,0,0)" xlink:href="#x"/><use transform="matrix(0.05,0,0,0.05,12.950000000000001,0)" xlink:href="#y"/><use transform="matrix(0.05,0,0,0.05,16.900000000000002,0)" xlink:href="#z"/><use transform="matrix(0.05,0,0,0.05,26.900000000000002,0)" xlink:href="#A"/><use transform="matrix(0.05,0,0,0.05,36.900000000000006,0)" xlink:href="#B"/></g><path fill="#147eba" d="M233-177c-1 41-23 64-60 70L243 0h-38l-65-103H63V0H30v-248c88 3 205-21 203 71zM63-129c60-2 137 13 137-47 0-61-80-42-137-45v92" id="C"/><path fill="#147eba" d="M100-194c63 0 86 42 84 106H49c0 40 14 67 53 68 26 1 43-12 49-29l28 8c-11 28-37 45-77 45C44 4 14-33 15-96c1-61 26-98 85-98zm52 81c6-60-76-77-97-28-3 7-6 17-6 28h103" id="D"/><path fill="#147eba" d="M177-190C167-65 218 103 67 71c-23-6-38-20-44-43l32-5c15 47 100 32 89-28v-30C133-14 115 1 83 1 29 1 15-40 15-95c0-56 16-97 71-98 29-1 48 16 59 35 1-10 0-23 2-32h30zM94-22c36 0 50-32 50-73 0-42-14-75-50-75-39 0-46 34-46 75s6 73 46 73" id="E"/><path fill="#147eba" d="M24-231v-30h32v30H24zM24 0v-190h32V0H24" id="F"/><path fill="#147eba" d="M100-194c62-1 85 37 85 99 1 63-27 99-86 99S16-35 15-95c0-66 28-99 85-99zM99-20c44 1 53-31 53-75 0-43-8-75-51-75s-53 32-53 75 10 74 51 75" id="G"/><path fill="#147eba" d="M117-194c89-4 53 116 60 194h-32v-121c0-31-8-49-39-48C34-167 62-67 57 0H25l-1-190h30c1 10-1 24 2 32 11-22 29-35 61-36" id="H"/><g id="c"><use transform="matrix(0.05,0,0,0.05,0,0)" xlink:href="#C"/><use transform="matrix(0.05,0,0,0.05,12.950000000000001,0)" xlink:href="#D"/><use transform="matrix(0.05,0,0,0.05,22.950000000000003,0)" xlink:href="#E"/><use transform="matrix(0.05,0,0,0.05,32.95,0)" xlink:href="#F"/><use transform="matrix(0.05,0,0,0.05,36.900000000000006,0)" xlink:href="#G"/><use transform="matrix(0.05,0,0,0.05,46.900000000000006,0)" xlink:href="#H"/></g><path fill="#248814" d="M137 0h-34L2-248h35l83 218 83-218h36" id="I"/><path fill="#248814" d="M24-231v-30h32v30H24zM24 0v-190h32V0H24" id="J"/><path fill="#248814" d="M114-163C36-179 61-72 57 0H25l-1-190h30c1 12-1 29 2 39 6-27 23-49 58-41v29" id="K"/><path fill="#248814" d="M59-47c-2 24 18 29 38 22v24C64 9 27 4 27-40v-127H5v-23h24l9-43h21v43h35v23H59v120" id="L"/><path fill="#248814" d="M84 4C-5 8 30-112 23-190h32v120c0 31 7 50 39 49 72-2 45-101 50-169h31l1 190h-30c-1-10 1-25-2-33-11 22-28 36-60 37" id="M"/><path fill="#248814" d="M141-36C126-15 110 5 73 4 37 3 15-17 15-53c-1-64 63-63 125-63 3-35-9-54-41-54-24 1-41 7-42 31l-33-3c5-37 33-52 76-52 45 0 72 20 72 64v82c-1 20 7 32 28 27v20c-31 9-61-2-59-35zM48-53c0 20 12 33 32 33 41-3 63-29 60-74-43 2-92-5-92 41" id="N"/><path fill="#248814" d="M24 0v-261h32V0H24" id="O"/><g id="d"><use transform="matrix(0.05,0,0,0.05,0,0)" xlink:href="#I"/><use transform="matrix(0.05,0,0,0.05,11.65,0)" xlink:href="#J"/><use transform="matrix(0.05,0,0,0.05,15.600000000000001,0)" xlink:href="#K"/><use transform="matrix(0.05,0,0,0.05,21.55,0)" xlink:href="#L"/><use transform="matrix(0.05,0,0,0.05,26.55,0)" xlink:href="#M"/><use transform="matrix(0.05,0,0,0.05,36.55,0)" xlink:href="#N"/><use transform="matrix(0.05,0,0,0.05,46.55,0)" xlink:href="#O"/></g><path fill="#248814" d="M30-248c87 1 191-15 191 75 0 78-77 80-158 76V0H30v-248zm33 125c57 0 124 11 124-50 0-59-68-47-124-48v98" id="P"/><path fill="#248814" d="M108 0H70L1-190h34L89-25l56-165h34" id="Q"/><path fill="#248814" d="M100-194c63 0 86 42 84 106H49c0 40 14 67 53 68 26 1 43-12 49-29l28 8c-11 28-37 45-77 45C44 4 14-33 15-96c1-61 26-98 85-98zm52 81c6-60-76-77-97-28-3 7-6 17-6 28h103" id="R"/><g id="e"><use transform="matrix(0.05,0,0,0.05,0,0)" xlink:href="#P"/><use transform="matrix(0.05,0,0,0.05,12,0)" xlink:href="#K"/><use transform="matrix(0.05,0,0,0.05,17.95,0)" xlink:href="#J"/><use transform="matrix(0.05,0,0,0.05,21.9,0)" xlink:href="#Q"/><use transform="matrix(0.05,0,0,0.05,30.899999999999995,0)" xlink:href="#N"/><use transform="matrix(0.05,0,0,0.05,40.9,0)" xlink:href="#L"/><use transform="matrix(0.05,0,0,0.05,45.9,0)" xlink:href="#R"/></g><path fill="#248814" d="M212-179c-10-28-35-45-73-45-59 0-87 40-87 99 0 60 29 101 89 101 43 0 62-24 78-52l27 14C228-24 195 4 139 4 59 4 22-46 18-125c-6-104 99-153 187-111 19 9 31 26 39 46" id="S"/><path fill="#248814" d="M100-194c62-1 85 37 85 99 1 63-27 99-86 99S16-35 15-95c0-66 28-99 85-99zM99-20c44 1 53-31 53-75 0-43-8-75-51-75s-53 32-53 75 10 74 51 75" id="T"/><path fill="#248814" d="M85-194c31 0 48 13 60 33l-1-100h32l1 261h-30c-2-10 0-23-3-31C134-8 116 4 85 4 32 4 16-35 15-94c0-66 23-100 70-100zm9 24c-40 0-46 34-46 75 0 40 6 74 45 74 42 0 51-32 51-76 0-42-9-74-50-73" id="U"/><g id="f"><use transform="matrix(0.05,0,0,0.05,0,0)" xlink:href="#S"/><use transform="matrix(0.05,0,0,0.05,12.950000000000001,0)" xlink:href="#O"/><use transform="matrix(0.05,0,0,0.05,16.900000000000002,0)" xlink:href="#T"/><use transform="matrix(0.05,0,0,0.05,26.900000000000002,0)" xlink:href="#M"/><use transform="matrix(0.05,0,0,0.05,36.900000000000006,0)" xlink:href="#U"/></g><path fill="#147eba" d="M205 0l-28-72H64L36 0H1l101-248h38L239 0h-34zm-38-99l-47-123c-12 45-31 82-46 123h93" id="V"/><path fill="#147eba" d="M108 0H70L1-190h34L89-25l56-165h34" id="W"/><path fill="#147eba" d="M141-36C126-15 110 5 73 4 37 3 15-17 15-53c-1-64 63-63 125-63 3-35-9-54-41-54-24 1-41 7-42 31l-33-3c5-37 33-52 76-52 45 0 72 20 72 64v82c-1 20 7 32 28 27v20c-31 9-61-2-59-35zM48-53c0 20 12 33 32 33 41-3 63-29 60-74-43 2-92-5-92 41" id="X"/><path fill="#147eba" d="M24 0v-261h32V0H24" id="Y"/><path fill="#147eba" d="M115-194c53 0 69 39 70 98 0 66-23 100-70 100C84 3 66-7 56-30L54 0H23l1-261h32v101c10-23 28-34 59-34zm-8 174c40 0 45-34 45-75 0-40-5-75-45-74-42 0-51 32-51 76 0 43 10 73 51 73" id="Z"/><path fill="#147eba" d="M59-47c-2 24 18 29 38 22v24C64 9 27 4 27-40v-127H5v-23h24l9-43h21v43h35v23H59v120" id="aa"/><path fill="#147eba" d="M179-190L93 31C79 59 56 82 12 73V49c39 6 53-20 64-50L1-190h34L92-34l54-156h33" id="ab"/><g id="g"><use transform="matrix(0.05,0,0,0.05,0,0)" xlink:href="#V"/><use transform="matrix(0.05,0,0,0.05,11.65,0)" xlink:href="#W"/><use transform="matrix(0.05,0,0,0.05,20.65,0)" xlink:href="#X"/><use transform="matrix(0.05,0,0,0.05,30.649999999999995,0)" xlink:href="#F"/><use transform="matrix(0.05,0,0,0.05,34.6,0)" xlink:href="#Y"/><use transform="matrix(0.05,0,0,0.05,38.550000000000004,0)" xlink:href="#X"/><use transform="matrix(0.05,0,0,0.05,48.550000000000004,0)" xlink:href="#Z"/><use transform="matrix(0.05,0,0,0.05,58.550000000000004,0)" xlink:href="#F"/><use transform="matrix(0.05,0,0,0.05,62.5,0)" xlink:href="#Y"/><use transform="matrix(0.05,0,0,0.05,66.45,0)" xlink:href="#F"/><use transform="matrix(0.05,0,0,0.05,70.4,0)" xlink:href="#aa"/><use transform="matrix(0.05,0,0,0.05,75.4,0)" xlink:href="#ab"/></g><path fill="#147eba" d="M209 0H11v-25l151-195H24v-28h176v25L50-27h159V0" id="ac"/><g id="h"><use transform="matrix(0.05,0,0,0.05,0,0)" xlink:href="#ac"/><use transform="matrix(0.05,0,0,0.05,10.950000000000001,0)" xlink:href="#G"/><use transform="matrix(0.05,0,0,0.05,20.950000000000003,0)" xlink:href="#H"/><use transform="matrix(0.05,0,0,0.05,30.950000000000003,0)" xlink:href="#D"/></g><path fill="#147eba" d="M27 0v-27h64v-190l-56 39v-29l58-41h29v221h61V0H27" id="ad"/><use transform="matrix(0.05,0,0,0.05,0,0)" xlink:href="#ad" id="i"/><path fill="#147eba" d="M101-251c82-7 93 87 43 132L82-64C71-53 59-42 53-27h129V0H18c2-99 128-94 128-182 0-28-16-43-45-43s-46 15-49 41l-32-3c6-41 34-60 81-64" id="ae"/><use transform="matrix(0.05,0,0,0.05,0,0)" xlink:href="#ae" id="j"/><path fill="#147eba" d="M30-248c87 1 191-15 191 75 0 78-77 80-158 76V0H30v-248zm33 125c57 0 124 11 124-50 0-59-68-47-124-48v98" id="af"/><path fill="#147eba" d="M114-163C36-179 61-72 57 0H25l-1-190h30c1 12-1 29 2 39 6-27 23-49 58-41v29" id="ag"/><g id="k"><use transform="matrix(0.05,0,0,0.05,0,0)" xlink:href="#af"/><use transform="matrix(0.05,0,0,0.05,12,0)" xlink:href="#ag"/><use transform="matrix(0.05,0,0,0.05,17.95,0)" xlink:href="#F"/><use transform="matrix(0.05,0,0,0.05,21.9,0)" xlink:href="#W"/><use transform="matrix(0.05,0,0,0.05,30.899999999999995,0)" xlink:href="#X"/><use transform="matrix(0.05,0,0,0.05,40.9,0)" xlink:href="#aa"/><use transform="matrix(0.05,0,0,0.05,45.9,0)" xlink:href="#D"/></g><path fill="#147eba" d="M185-189c-5-48-123-54-124 2 14 75 158 14 163 119 3 78-121 87-175 55-17-10-28-26-33-46l33-7c5 56 141 63 141-1 0-78-155-14-162-118-5-82 145-84 179-34 5 7 8 16 11 25" id="ah"/><path fill="#147eba" d="M84 4C-5 8 30-112 23-190h32v120c0 31 7 50 39 49 72-2 45-101 50-169h31l1 190h-30c-1-10 1-25-2-33-11 22-28 36-60 37" id="ai"/><g id="l"><use transform="matrix(0.05,0,0,0.05,0,0)" xlink:href="#ah"/><use transform="matrix(0.05,0,0,0.05,12,0)" xlink:href="#ai"/><use transform="matrix(0.05,0,0,0.05,22,0)" xlink:href="#Z"/><use transform="matrix(0.05,0,0,0.05,32,0)" xlink:href="#H"/><use transform="matrix(0.05,0,0,0.05,42,0)" xlink:href="#D"/><use transform="matrix(0.05,0,0,0.05,52,0)" xlink:href="#aa"/></g><path fill="#248814" d="M115-194c53 0 69 39 70 98 0 66-23 100-70 100C84 3 66-7 56-30L54 0H23l1-261h32v101c10-23 28-34 59-34zm-8 174c40 0 45-34 45-75 0-40-5-75-45-74-42 0-51 32-51 76 0 43 10 73 51 73" id="aj"/><path fill="#248814" d="M96-169c-40 0-48 33-48 73s9 75 48 75c24 0 41-14 43-38l32 2c-6 37-31 61-74 61-59 0-76-41-82-99-10-93 101-131 147-64 4 7 5 14 7 22l-32 3c-4-21-16-35-41-35" id="ak"/><g id="m"><use transform="matrix(0.05,0,0,0.05,0,0)" xlink:href="#P"/><use transform="matrix(0.05,0,0,0.05,12,0)" xlink:href="#M"/><use transform="matrix(0.05,0,0,0.05,22,0)" xlink:href="#aj"/><use transform="matrix(0.05,0,0,0.05,32,0)" xlink:href="#O"/><use transform="matrix(0.05,0,0,0.05,35.95,0)" xlink:href="#J"/><use transform="matrix(0.05,0,0,0.05,39.900000000000006,0)" xlink:href="#ak"/></g><path fill="#248814" d="M185-189c-5-48-123-54-124 2 14 75 158 14 163 119 3 78-121 87-175 55-17-10-28-26-33-46l33-7c5 56 141 63 141-1 0-78-155-14-162-118-5-82 145-84 179-34 5 7 8 16 11 25" id="al"/><path fill="#248814" d="M117-194c89-4 53 116 60 194h-32v-121c0-31-8-49-39-48C34-167 62-67 57 0H25l-1-190h30c1 10-1 24 2 32 11-22 29-35 61-36" id="am"/><g id="n"><use transform="matrix(0.05,0,0,0.05,0,0)" xlink:href="#al"/><use transform="matrix(0.05,0,0,0.05,12,0)" xlink:href="#M"/><use transform="matrix(0.05,0,0,0.05,22,0)" xlink:href="#aj"/><use transform="matrix(0.05,0,0,0.05,32,0)" xlink:href="#am"/><use transform="matrix(0.05,0,0,0.05,42,0)" xlink:href="#R"/><use transform="matrix(0.05,0,0,0.05,52,0)" xlink:href="#L"/></g><path d="M137 0h-34L2-248h35l83 218 83-218h36" id="an"/><path d="M30-248c87 1 191-15 191 75 0 78-77 80-158 76V0H30v-248zm33 125c57 0 124 11 124-50 0-59-68-47-124-48v98" id="ao"/><path d="M212-179c-10-28-35-45-73-45-59 0-87 40-87 99 0 60 29 101 89 101 43 0 62-24 78-52l27 14C228-24 195 4 139 4 59 4 22-46 18-125c-6-104 99-153 187-111 19 9 31 26 39 46" id="ap"/><g id="o"><use transform="matrix(0.05,0,0,0.05,0,0)" xlink:href="#an"/><use transform="matrix(0.05,0,0,0.05,12,0)" xlink:href="#ao"/><use transform="matrix(0.05,0,0,0.05,24,0)" xlink:href="#ap"/></g><path d="M100-194c63 0 86 42 84 106H49c0 40 14 67 53 68 26 1 43-12 49-29l28 8c-11 28-37 45-77 45C44 4 14-33 15-96c1-61 26-98 85-98zm52 81c6-60-76-77-97-28-3 7-6 17-6 28h103" id="aq"/><path d="M114-163C36-179 61-72 57 0H25l-1-190h30c1 12-1 29 2 39 6-27 23-49 58-41v29" id="ar"/><path d="M24-231v-30h32v30H24zM24 0v-190h32V0H24" id="as"/><path d="M117-194c89-4 53 116 60 194h-32v-121c0-31-8-49-39-48C34-167 62-67 57 0H25l-1-190h30c1 10-1 24 2 32 11-22 29-35 61-36" id="at"/><path d="M177-190C167-65 218 103 67 71c-23-6-38-20-44-43l32-5c15 47 100 32 89-28v-30C133-14 115 1 83 1 29 1 15-40 15-95c0-56 16-97 71-98 29-1 48 16 59 35 1-10 0-23 2-32h30zM94-22c36 0 50-32 50-73 0-42-14-75-50-75-39 0-46 34-46 75s6 73 46 73" id="au"/><g id="p"><use transform="matrix(0.05,0,0,0.05,0,0)" xlink:href="#ao"/><use transform="matrix(0.05,0,0,0.05,12,0)" xlink:href="#aq"/><use transform="matrix(0.05,0,0,0.05,22,0)" xlink:href="#aq"/><use transform="matrix(0.05,0,0,0.05,32,0)" xlink:href="#ar"/><use transform="matrix(0.05,0,0,0.05,37.95,0)" xlink:href="#as"/><use transform="matrix(0.05,0,0,0.05,41.900000000000006,0)" xlink:href="#at"/><use transform="matrix(0.05,0,0,0.05,51.900000000000006,0)" xlink:href="#au"/></g><path d="M100-194c62-1 85 37 85 99 1 63-27 99-86 99S16-35 15-95c0-66 28-99 85-99zM99-20c44 1 53-31 53-75 0-43-8-75-51-75s-53 32-53 75 10 74 51 75" id="av"/><path d="M96-169c-40 0-48 33-48 73s9 75 48 75c24 0 41-14 43-38l32 2c-6 37-31 61-74 61-59 0-76-41-82-99-10-93 101-131 147-64 4 7 5 14 7 22l-32 3c-4-21-16-35-41-35" id="aw"/><path d="M59-47c-2 24 18 29 38 22v24C64 9 27 4 27-40v-127H5v-23h24l9-43h21v43h35v23H59v120" id="ax"/><g id="q"><use transform="matrix(0.05,0,0,0.05,0,0)" xlink:href="#ap"/><use transform="matrix(0.05,0,0,0.05,12.950000000000001,0)" xlink:href="#av"/><use transform="matrix(0.05,0,0,0.05,22.950000000000003,0)" xlink:href="#at"/><use transform="matrix(0.05,0,0,0.05,32.95,0)" xlink:href="#at"/><use transform="matrix(0.05,0,0,0.05,42.95,0)" xlink:href="#aq"/><use transform="matrix(0.05,0,0,0.05,52.95,0)" xlink:href="#aw"/><use transform="matrix(0.05,0,0,0.05,61.95,0)" xlink:href="#ax"/><use transform="matrix(0.05,0,0,0.05,66.95,0)" xlink:href="#as"/><use transform="matrix(0.05,0,0,0.05,70.9,0)" xlink:href="#av"/><use transform="matrix(0.05,0,0,0.05,80.9,0)" xlink:href="#at"/></g><path d="M33 0v-248h34V0H33" id="ay"/><path d="M143 4C61 4 22-44 18-125c-5-107 100-154 193-111 17 8 29 25 37 43l-32 9c-13-25-37-40-76-40-61 0-88 39-88 99 0 61 29 100 91 101 35 0 62-11 79-27v-45h-74v-28h105v86C228-13 192 4 143 4" id="az"/><path d="M266 0h-40l-56-210L115 0H75L2-248h35L96-30l15-64 43-154h32l59 218 59-218h35" id="aA"/><g id="r"><use transform="matrix(0.05,0,0,0.05,0,0)" xlink:href="#ay"/><use transform="matrix(0.05,0,0,0.05,5,0)" xlink:href="#az"/><use transform="matrix(0.05,0,0,0.05,19,0)" xlink:href="#aA"/></g><path d="M190 0L58-211 59 0H30v-248h39L202-35l-2-213h31V0h-41" id="aB"/><path d="M205 0l-28-72H64L36 0H1l101-248h38L239 0h-34zm-38-99l-47-123c-12 45-31 82-46 123h93" id="aC"/><path d="M127-220V0H93v-220H8v-28h204v28h-85" id="aD"/><g id="s"><use transform="matrix(0.05,0,0,0.05,0,0)" xlink:href="#aB"/><use transform="matrix(0.05,0,0,0.05,12.950000000000001,0)" xlink:href="#aC"/><use transform="matrix(0.05,0,0,0.05,23.6,0)" xlink:href="#aD"/></g><path d="M141-36C126-15 110 5 73 4 37 3 15-17 15-53c-1-64 63-63 125-63 3-35-9-54-41-54-24 1-41 7-42 31l-33-3c5-37 33-52 76-52 45 0 72 20 72 64v82c-1 20 7 32 28 27v20c-31 9-61-2-59-35zM48-53c0 20 12 33 32 33 41-3 63-29 60-74-43 2-92-5-92 41" id="aE"/><path d="M206 0h-36l-40-164L89 0H53L-1-190h32L70-26l43-164h34l41 164 42-164h31" id="aF"/><path d="M179-190L93 31C79 59 56 82 12 73V49c39 6 53-20 64-50L1-190h34L92-34l54-156h33" id="aG"/><g id="t"><use transform="matrix(0.05,0,0,0.05,0,0)" xlink:href="#az"/><use transform="matrix(0.05,0,0,0.05,14,0)" xlink:href="#aE"/><use transform="matrix(0.05,0,0,0.05,24,0)" xlink:href="#ax"/><use transform="matrix(0.05,0,0,0.05,29,0)" xlink:href="#aq"/><use transform="matrix(0.05,0,0,0.05,39,0)" xlink:href="#aF"/><use transform="matrix(0.05,0,0,0.05,51.95,0)" xlink:href="#aE"/><use transform="matrix(0.05,0,0,0.05,61.95,0)" xlink:href="#aG"/></g></defs></g></svg>